<?xml version="1.0" encoding="UTF-8" standalone="no"?>
<!-- Created with Inkscape (http://www.inkscape.org/) -->

<svg
   xmlns:dc="http://purl.org/dc/elements/1.1/"
   xmlns:cc="http://creativecommons.org/ns#"
   xmlns:rdf="http://www.w3.org/1999/02/22-rdf-syntax-ns#"
   xmlns:svg="http://www.w3.org/2000/svg"
   xmlns="http://www.w3.org/2000/svg"
   xmlns:sodipodi="http://sodipodi.sourceforge.net/DTD/sodipodi-0.dtd"
   xmlns:inkscape="http://www.inkscape.org/namespaces/inkscape"
   version="1.1"
   id="svg3910"
   width="840.00256"
   height="942.00006"
   viewBox="0 0 840.00256 942.00006"
   sodipodi:docname="clipboard-green.svg"
   inkscape:version="0.92.5 (2060ec1f9f, 2020-04-08)">
  <metadata
     id="metadata3916">
    <rdf:RDF>
      <cc:Work
         rdf:about="">
        <dc:format>image/svg+xml</dc:format>
        <dc:type
           rdf:resource="http://purl.org/dc/dcmitype/StillImage" />
        <dc:title></dc:title>
      </cc:Work>
    </rdf:RDF>
  </metadata>
  <defs
     id="defs3914" />
  <sodipodi:namedview
     pagecolor="#ffffff"
     bordercolor="#666666"
     borderopacity="1"
     objecttolerance="10"
     gridtolerance="10"
     guidetolerance="10"
     inkscape:pageopacity="0"
     inkscape:pageshadow="2"
     inkscape:window-width="1920"
     inkscape:window-height="1080"
     id="namedview3912"
     showgrid="false"
     inkscape:zoom="0.95753715"
     inkscape:cx="47.203917"
     inkscape:cy="599.4546"
     inkscape:window-x="0"
     inkscape:window-y="0"
     inkscape:window-maximized="0"
     inkscape:current-layer="svg3910" />
  <path
     inkscape:connector-curvature="0"
     id="path3954"
     d="m 87.36254,860.49586 c -12.64682,-1.8505 -27.78292,-7.805 -38.71308,-15.2299 -6.67007,-4.531 -17.61951,-15.33697 -22.63255,-22.33603 C 20.23699,814.86017 14.241,801.9314 11.43129,791.47991 l -2.2564399,-8.3935 -0.30075,-319.5 c -0.20327,-215.94316 0.0344,-322.05353 0.73317,-327.37832 C 14.90279,95.857215 44.38247,64.670285 84.48743,56.991405 c 10.68228,-2.04534 88.04487,-2.04052 91.96169,0.006 10.80666,5.64566 12.85805,19.14859 4.10981,27.0521 -2.12248,1.91752 -4.88289,3.71644 -6.13426,3.9976 -1.25136,0.28115 -20.95021,0.66482 -43.77521,0.85259 -45.35567,0.37313 -44.21764,0.23904 -57.08597,6.72583 -9.36987,4.723245 -20.59634,16.300225 -25.17514,25.961155 -1.95504,4.125 -4.07049,9.975 -4.701,13 -0.85175,4.08648 -1.06818,88.12667 -0.84213,327 l 0.30424,321.50003 2.89896,7 c 7.22855,17.45447 19.34079,28.94183 37.10104,35.18693 l 8,2.81307 120.30974,0.29157 120.30974,0.29158 16.52696,16.4584 16.52697,16.4585 -135.83671,-0.122 c -74.71018,-0.067 -138.44081,-0.5029 -141.62362,-0.9686 z m 466.78694,-0.035 c -40.9614,-3.8921 -80.66447,-19.1784 -114.1413,-43.94609 -29.42643,-21.77104 -53.04192,-50.16503 -69.38808,-83.42849 -30.78692,-62.64949 -30.77395,-137.37676 0.0347,-200.07069 34.34933,-69.89901 98.49264,-115.65672 177.49468,-126.61879 11.6667,-1.61884 44.4696,-1.60606 56,0.0218 71.1644,10.04707 129.6699,47.90642 166.8061,107.94145 40.2431,65.05783 44.2145,149.52724 10.28,218.64895 -24.8195,50.55508 -66.7153,89.79604 -119.0861,111.53996 -32.4605,13.4773 -72.1227,19.3208 -108,15.9118 z m -3,-97.75065 c 4.1945,-1.84595 20.0114,-17.21724 98.1783,-95.41219 l 93.1782,-93.21174 2.191,-7.32202 c 3.4511,-11.53282 1.2885,-21.3728 -6.6214,-30.12807 -8.3913,-9.28812 -22.6382,-12.56478 -34.9261,-8.03267 -5.7748,2.12987 -8.994,5.20207 -85.7492,81.83247 l -79.7491,79.61951 -41.25088,-41.13311 c -28.22882,-28.14825 -42.6714,-41.8488 -45.75084,-43.40028 -3.07983,-1.55166 -6.91208,-2.41128 -12.143,-2.72379 -6.72606,-0.40184 -8.34568,-0.13575 -13.5,2.21793 -7.11751,3.25016 -12.64324,8.39702 -16.17937,15.07003 -2.26107,4.26686 -2.65163,6.24634 -2.6636,13.5 -0.0114,6.92888 0.42877,9.42419 2.38158,13.5 1.87235,3.90786 13.66749,16.31792 54,56.81524 28.38242,28.49838 53.76271,53.41452 56.40071,55.36918 2.638,1.95467 6.688,4.17216 9,4.92775 5.9471,1.94358 17.0194,1.23342 23.2037,-1.48824 z M 181.14946,413.18423 c -15.40812,-4.88573 -26.26332,-17.35117 -28.34125,-32.54533 -1.81179,-13.2481 2.3963,-25.46215 11.89342,-34.52087 6.37525,-6.08096 11.76288,-8.8252 20.63408,-10.51016 4.12257,-0.78303 49.0064,-1.01948 154.29633,-0.81287 l 148.48259,0.29138 -11.54611,3.79791 c -40.57259,13.34569 -78.96543,36.09058 -112.58516,66.69829 l -9.8339,8.95286 -84.5,-0.0414 c -65.38814,-0.0321 -85.4047,-0.3283 -88.5,-1.30979 z m 555.00002,-44.68866 c -3.3,-2.16341 -10.1605,-6.06551 -15.2454,-8.67133 l -9.2455,-4.73786 -0.04,-105 c -0.044,-117.68327 0.1,-114.98371 -6.8657,-128.99893 -6.755,-13.59212 -18.4787,-23.930395 -33.2231,-29.296875 l -7.3808,-2.68638 -42.5,-0.50891 c -30.6326,-0.36681 -43.09,-0.84728 -44.6129,-1.7207 -3.7145,-2.1304 -8.0994,-7.94092 -8.7964,-11.65645 -1.4877,-7.93008 4.5245,-17.81514 11.6445,-19.1457 1.7956,-0.33555 22.6148,-0.45386 46.2648,-0.2629 l 43,0.34719 8.9506,2.76859 c 32.0298,9.90736 55.2227,33.85437 63.7696,65.843175 l 2.2225,8.31789 0.3058,119.75 c 0.247,96.6842 0.06,119.73485 -0.9713,119.67133 -0.7025,-0.0433 -3.9772,-1.84872 -7.2772,-4.01214 z M 186.93661,244.60515 c -21.74493,-2.47662 -37.55143,-23.56375 -34.11996,-45.51874 2.01658,-12.90232 10.43532,-24.23449 22.33281,-30.06143 l 6,-2.93857 41.78751,-0.5 c 35.68324,-0.42696 41.92588,-0.71912 42.73469,-2 0.56244,-0.89072 0.95339,-21.43973 0.96249,-50.59004 0.0143,-45.776795 0.15043,-49.623915 2.01736,-57.000005 3.16928,-12.52163 7.34085,-19.75611 16.99269,-29.46926 9.07266,-9.13029 17.15495,-14.12083 28.50526,-17.6010096 5.52403,-1.69375 10.48205,-1.83969 62.5,-1.83969 h 56.5 l 8.93067,2.9268696 c 16.50994,5.41085 29.57136,16.41831 37.46455,31.57313 6.68054,12.82654 6.44608,10.55885 7.05137,68.201215 0.43356,41.28809 0.83461,52.98248 1.85188,54 1.00588,1.00613 10.58238,1.41145 42.50005,1.79879 l 41.2015,0.5 5.7181,2.68006 c 15.9218,7.46257 25.875,25.92882 22.8611,42.41435 -3.3362,18.24834 -17.234,31.37754 -35.4513,33.49088 -8.6263,1.00071 -369.52754,0.93723 -378.34077,-0.0666 z m 197.5633,-112.06431 c 24.26199,-3.93689 41.91663,-28.3315 38.14277,-52.704435 -2.6788,-17.30065 -14.90613,-31.54586 -31.99322,-37.27306 -5.34,-1.78985 -8.19539,-2.11045 -16,-1.79643 -8.16977,0.32871 -10.47222,0.83822 -16.44325,3.63875 -3.81879,1.79109 -8.84061,4.81127 -11.1596,6.71151 -17.35038,14.21733 -21.65025,40.00429 -9.98863,59.903345 5.74369,9.80087 20.04199,19.63229 31.30652,21.52617 6.85075,1.1518 9.00596,1.15102 16.13541,-0.006 z"
     style="fill:#000000;opacity:0.98" />
  <path
     style="opacity:0.98000004;fill:#ff0000;stroke-width:1.04434586"
     d="m 527.54869,763.45774 c -6.1978,-2.32064 -9.66109,-5.41436 -43.92749,-39.23991 -44.34232,-43.77186 -72.47415,-73.32867 -74.9191,-78.71403 -1.3423,-2.9566 -1.99259,-6.75539 -2.00119,-11.69027 -0.0223,-12.78977 6.5815,-22.53665 19.16126,-28.28116 5.31736,-2.42816 7.02111,-2.72158 12.71533,-2.18984 3.61638,0.3377 8.18888,1.28822 10.1611,2.11227 3.87148,1.61761 34.61897,30.64627 68.05496,64.25058 l 20.83421,20.9391 76.81213,-76.49558 c 42.24667,-42.07257 79.4409,-78.47578 82.65383,-80.89604 17.63679,-13.28553 43.31609,-3.44579 47.99954,18.39237 0.96496,4.49944 0.8607,6.94854 -0.57659,13.54443 l -1.75453,8.05181 -56.56327,56.74732 c -81.17259,81.43674 -131.70652,130.58043 -136.20885,132.46163 -5.40393,2.2579 -17.6351,2.80692 -22.44134,1.00732 z"
     id="path4868"
     inkscape:connector-curvature="0" />
  <path
     style="opacity:0.98000004;fill:#00ff00;stroke-width:1.04434586"
     d="m 526.24538,762.38094 c -5.2603,-2.30339 -21.17524,-17.34753 -63.22635,-59.76687 -40.95627,-41.31491 -52.53156,-53.8042 -54.38515,-58.6795 -1.91089,-5.02603 -1.25725,-17.26268 1.20153,-22.49351 2.65997,-5.65882 9.86355,-12.59363 15.95402,-15.35873 4.90636,-2.22751 13.66807,-2.63077 19.8517,-0.91366 5.5831,1.55034 15.41018,10.44364 56.14523,50.81023 19.28778,19.11331 35.42663,34.75148 35.86408,34.75148 0.43747,0 36.13333,-35.12918 79.32414,-78.06485 59.36204,-59.01137 79.92166,-78.82955 84.2357,-81.1979 5.01216,-2.75161 6.72407,-3.13083 14.06171,-3.11496 6.55827,0.0142 9.27917,0.50872 12.65378,2.29986 6.97633,3.70282 10.52651,7.29423 13.91643,14.07808 3.55299,7.11015 3.98614,12.01613 1.93686,21.93774 l -1.25679,6.08476 -83.59631,83.3119 c -91.32834,91.01762 -106.00792,104.991 -112.06406,106.6729 -5.39139,1.49729 -16.83441,1.29915 -20.61652,-0.35697 z"
     id="path4872"
     inkscape:connector-curvature="0" />
</svg>
