<?xml version="1.0" encoding="UTF-8" standalone="no"?>
<!-- Created with Inkscape (http://www.inkscape.org/) -->

<svg
   xmlns:dc="http://purl.org/dc/elements/1.1/"
   xmlns:cc="http://creativecommons.org/ns#"
   xmlns:rdf="http://www.w3.org/1999/02/22-rdf-syntax-ns#"
   xmlns:svg="http://www.w3.org/2000/svg"
   xmlns="http://www.w3.org/2000/svg"
   xmlns:sodipodi="http://sodipodi.sourceforge.net/DTD/sodipodi-0.dtd"
   xmlns:inkscape="http://www.inkscape.org/namespaces/inkscape"
   version="1.1"
   id="svg4569"
   width="512"
   height="512"
   viewBox="0 0 512 512"
   sodipodi:docname="Oil-512.svg"
   inkscape:version="0.92.5 (2060ec1f9f, 2020-04-08)">
  <metadata
     id="metadata4575">
    <rdf:RDF>
      <cc:Work
         rdf:about="">
        <dc:format>image/svg+xml</dc:format>
        <dc:type
           rdf:resource="http://purl.org/dc/dcmitype/StillImage" />
        <dc:title></dc:title>
      </cc:Work>
    </rdf:RDF>
  </metadata>
  <defs
     id="defs4573" />
  <sodipodi:namedview
     pagecolor="#ffffff"
     bordercolor="#666666"
     borderopacity="1"
     objecttolerance="10"
     gridtolerance="10"
     guidetolerance="10"
     inkscape:pageopacity="0"
     inkscape:pageshadow="2"
     inkscape:window-width="1920"
     inkscape:window-height="1043"
     id="namedview4571"
     showgrid="false"
     inkscape:zoom="1.6367188"
     inkscape:cx="256"
     inkscape:cy="256"
     inkscape:window-x="0"
     inkscape:window-y="0"
     inkscape:window-maximized="1"
     inkscape:current-layer="svg4569" />
  <g
     id="g4579"
     transform="translate(-2.4439091)">
    <path
       style="fill:#020202"
       d="m 70.868574,359.49015 c -1.447285,-0.78637 -2.977094,-2.23086 -3.399577,-3.20996 -0.422483,-0.9791 -0.9149,-9.62187 -1.094262,-19.20615 -0.238286,-12.73298 -0.669295,-17.64375 -1.600423,-18.23468 -0.700872,-0.44481 -3.092268,-0.81563 -5.314213,-0.82405 C 53.442875,317.99251 44.433445,315.42349 36,311.32573 18.159362,302.65707 3.3267373,280.48854 2.90032,261.85566 2.8164279,258.18988 2.6738294,257.89597 2,260 c -0.6068363,1.89485 -0.8006399,1.16866 -0.8006399,-3 0,-4.16866 0.1938036,-4.89485 0.8006399,-3 0.6634618,2.07166 0.8177187,1.72215 0.90032,-2.0399 C 3.0458033,245.3341 5.5286251,236.53561 9.6615555,228 14.685423,217.62437 26.679926,205.67163 37.091966,200.6651 51.106449,193.92637 50.267652,194 113.01897,194 c 44.01322,0 56.98288,-0.28086 58.32614,-1.26308 1.48792,-1.088 1.68768,-2.78601 1.44113,-12.25 L 172.5,169.5 159.27364,169 c -12.03371,-0.45491 -13.42933,-0.70334 -15.47727,-2.75505 -3.38756,-3.39378 -3.12626,-9.70427 0.53212,-12.85108 L 147.11153,151 h 34.39718 c 36.37893,0 38.36328,0.22886 40.38102,4.65732 2.00535,4.40128 1.35475,7.95918 -1.96646,10.75379 -2.92711,2.463 -3.64678,2.58889 -14.8,2.58889 -7.78476,0 -12.12642,0.40315 -12.92327,1.2 -1.45127,1.45127 -1.63539,19.56245 -0.22162,21.8 0.81796,1.29458 7.6976,1.53428 50.23469,1.75031 34.49734,0.1752 49.94618,0.59248 51.48389,1.3906 2.91906,1.51507 3.55573,3.14851 4.23251,10.85909 0.56293,6.41339 0.61233,6.50406 3.70758,6.80493 1.72538,0.16772 41.81006,-3.99478 89.07707,-9.25 47.267,-5.25521 87.77783,-9.55493 90.02405,-9.55493 3.3655,0 4.55699,0.56207 6.77219,3.19468 2.18679,2.59886 2.58205,3.85776 2.1193,6.75 -0.31286,1.95543 -1.44028,4.26825 -2.50538,5.1396 -1.0651,0.87136 -43.71609,20.15151 -94.77997,42.84478 -51.06389,22.69327 -93.17424,41.78035 -93.57856,42.41572 -0.40432,0.63537 -0.74202,14.57734 -0.75044,30.98214 L 298,355.15385 295.07692,358.07692 292.15385,361 182.82692,360.96 C 89.982036,360.92596 73.103288,360.70437 70.868574,359.49015 Z M 278.8,341.8 c 0.90829,-0.90829 1.19628,-16.52711 1.18469,-64.25 -0.008,-34.6775 -0.37388,-63.61476 -0.81213,-64.30503 -0.63199,-0.99542 -20.74532,-1.20227 -97.23468,-1 L 85.5,212.5 l -0.25915,64 c -0.142533,35.2 -0.04416,64.5625 0.218615,65.25 0.683133,1.78731 191.553865,1.83667 193.340535,0.05 z M 65.622725,298.80143 c 1.154934,-1.86873 0.698345,-84.88036 -0.473312,-86.05202 -1.729119,-1.72912 -11.601608,0.20064 -18.886079,3.69163 -9.288093,4.4512 -16.525233,11.79715 -21.088013,21.40506 -11.133407,23.4438 0.480998,51.58872 24.694809,59.84237 7.260094,2.47472 14.590878,2.99265 15.752595,1.11296 z M 355.06591,248.63116 c 28.83875,-12.85287 53.68324,-23.95541 55.20999,-24.67232 3.25627,-1.52904 3.08591,-3.33767 -0.35302,-3.74778 -5.06087,-0.60353 -110.26643,11.72744 -111.08704,13.02032 -0.96577,1.52158 -1.12395,37.14718 -0.16917,38.10195 0.36666,0.36667 1.40882,0.66667 2.31591,0.66667 0.90709,0 25.24459,-10.51598 54.08333,-23.36884 z M 460.5,338.6124 c -20.63439,-5.0245 -34.35594,-25.07785 -30.6972,-44.8624 1.71195,-9.25734 7.14544,-19.36899 14.93532,-27.79444 C 454.02066,255.91566 465.3823,247 468.89407,247 c 3.94121,0 11.12367,5.10195 21.0557,14.95661 9.24518,9.17316 14.84062,17.38908 17.57966,25.81264 2.5319,7.78653 1.72158,20.86351 -1.76286,28.44882 -5.27774,11.48919 -16.86603,20.39021 -29.65306,22.77665 -6.62774,1.23693 -9.2248,1.17334 -15.61351,-0.38232 z m 18,-19.09913 c 10.82021,-4.44807 15.51564,-18.49458 10.08277,-30.16284 C 485.52135,282.77537 472.60783,269 469.50555,269 c -3.04097,0 -17.04729,14.74001 -19.80192,20.83919 -8.54167,18.91262 9.57104,37.57741 28.79637,29.67408 z M 510.25218,299.5 c 0.0111,-2.2 0.21589,-2.98225 0.45508,-1.73834 0.23919,1.24391 0.23011,3.04391 -0.0202,4 -0.25029,0.95609 -0.446,-0.0617 -0.4349,-2.26166 z"
       id="path4581"
       inkscape:connector-curvature="0" />
  </g>
</svg>
