<svg xmlns="http://www.w3.org/2000/svg" data-name="Layer 1" viewBox="0 0 32 32"><rect width="31" height="27" x=".5" y="4.5" fill="#d8d9dc" rx="2" ry="2"/><path fill="#ec456b" d="M2.5,4.5h27a2,2,0,0,1,2,2v5a0,0,0,0,1,0,0H.5a0,0,0,0,1,0,0v-5A2,2,0,0,1,2.5,4.5Z"/><rect width="3" height="8" x="3.5" y=".5" fill="#d8d9dc" rx="1.5" ry="1.5"/><rect width="3" height="8" x="25.5" y=".5" fill="#d8d9dc" rx="1.5" ry="1.5"/><path fill="#8b8891" d="M13.181,14.374a3.678,3.678,0,0,0-3.709-.906l2.308,2.308-2.4,2.4L7.069,15.871a3.68,3.68,0,0,0,4.911,4.51l8.7,8.7a1.416,1.416,0,0,0,2,0h0a1.416,1.416,0,0,0,0-2l-8.7-8.7A3.681,3.681,0,0,0,13.181,14.374Z"/><path fill="#8b8891" d="M18.819,14.374a3.678,3.678,0,0,1,3.709-.906l-2.308,2.308,2.4,2.4,2.308-2.308a3.68,3.68,0,0,1-4.911,4.51l-8.7,8.7a1.416,1.416,0,0,1-2,0h0a1.416,1.416,0,0,1,0-2l8.7-8.7A3.681,3.681,0,0,1,18.819,14.374Z"/><path d="M29.5,4H29V2a2,2,0,0,0-4,0V4H7V2A2,2,0,0,0,3,2V4H2.5A2.5,2.5,0,0,0,0,6.5v23A2.5,2.5,0,0,0,2.5,32h27A2.5,2.5,0,0,0,32,29.5V6.5A2.5,2.5,0,0,0,29.5,4ZM26,2a1,1,0,0,1,2,0V7a1,1,0,0,1-2,0ZM4,2A1,1,0,0,1,6,2V7A1,1,0,0,1,4,7ZM31,29.5A1.5,1.5,0,0,1,29.5,31H2.5A1.5,1.5,0,0,1,1,29.5V12H31ZM31,11H1V6.5A1.5,1.5,0,0,1,2.5,5H3V7A2,2,0,0,0,7,7V5H25V7a2,2,0,0,0,4,0V5h.5A1.5,1.5,0,0,1,31,6.5ZM11.852,20.96,13.292,22.4,8.95,26.733a1.921,1.921,0,0,0,2.724,2.71L16,25.109l4.33,4.33a1.916,1.916,0,1,0,2.709-2.709L18.709,22.4l1.439-1.44a4.181,4.181,0,0,0,5.259-5.239.5.5,0,0,0-.831-.2L22.62,17.473,20.927,15.78l1.956-1.957a.5.5,0,0,0-.2-.83,4.175,4.175,0,0,0-5.239,5.259L16,19.692l-1.441-1.441A4.18,4.18,0,0,0,9.322,12.99a.5.5,0,0,0-.2.831l1.954,1.955-1.7,1.7L7.423,15.518a.5.5,0,0,0-.831.2,4.18,4.18,0,0,0,5.259,5.239Zm-.882,7.773a.927.927,0,0,1-1.3.01.955.955,0,0,1-.27-.663.937.937,0,0,1,.263-.646L14,23.107,15.293,24.4Zm7.4-10a.5.5,0,0,0,.108-.545,3.187,3.187,0,0,1,.691-3.465,3.1,3.1,0,0,1,2.321-.925l-1.627,1.628a.5.5,0,0,0,0,.707l2.4,2.4a.5.5,0,0,0,.707,0L24.6,16.906a3.184,3.184,0,0,1-4.391,3.012.5.5,0,0,0-.544.108L18,21.692,16.708,20.4Zm-9.35-.2a.5.5,0,0,0,.707,0l2.4-2.4a.5.5,0,0,0,0-.707L10.508,13.8a3.121,3.121,0,0,1,2.319.93,3.174,3.174,0,0,1,.692,3.461.5.5,0,0,0,.109.544l2.011,2.011.007.01.01.007,1.983,1.983.007.01.01.007,4.676,4.676a.914.914,0,0,1,0,1.295.934.934,0,0,1-1.294,0L14.356,22.05l0,0,0,0-2.018-2.018a.5.5,0,0,0-.544-.108A3.18,3.18,0,0,1,7.4,16.908Z"/></svg>