<?xml version="1.0" encoding="UTF-8" standalone="no"?>
<!-- Created with Inkscape (http://www.inkscape.org/) -->

<svg
   xmlns:dc="http://purl.org/dc/elements/1.1/"
   xmlns:cc="http://creativecommons.org/ns#"
   xmlns:rdf="http://www.w3.org/1999/02/22-rdf-syntax-ns#"
   xmlns:svg="http://www.w3.org/2000/svg"
   xmlns="http://www.w3.org/2000/svg"
   xmlns:sodipodi="http://sodipodi.sourceforge.net/DTD/sodipodi-0.dtd"
   xmlns:inkscape="http://www.inkscape.org/namespaces/inkscape"
   version="1.1"
   id="svg4957"
   width="655.35999"
   height="655.35999"
   viewBox="0 0 655.35999 655.35999"
   sodipodi:docname="users.svg"
   inkscape:version="0.92.5 (2060ec1f9f, 2020-04-08)">
  <metadata
     id="metadata4963">
    <rdf:RDF>
      <cc:Work
         rdf:about="">
        <dc:format>image/svg+xml</dc:format>
        <dc:type
           rdf:resource="http://purl.org/dc/dcmitype/StillImage" />
        <dc:title></dc:title>
      </cc:Work>
    </rdf:RDF>
  </metadata>
  <defs
     id="defs4961" />
  <sodipodi:namedview
     pagecolor="#ffffff"
     bordercolor="#666666"
     borderopacity="1"
     objecttolerance="10"
     gridtolerance="10"
     guidetolerance="10"
     inkscape:pageopacity="0"
     inkscape:pageshadow="2"
     inkscape:window-width="1920"
     inkscape:window-height="1080"
     id="namedview4959"
     showgrid="false"
     inkscape:zoom="1.3763428"
     inkscape:cx="320.8398"
     inkscape:cy="326.92235"
     inkscape:window-x="0"
     inkscape:window-y="0"
     inkscape:window-maximized="1"
     inkscape:current-layer="svg4957" />
  <g
     id="g4967"
     transform="translate(0.06215318,2.2107685)">
    <path
       style="fill:#010101;stroke-width:1.27999997"
       d="m 106.88,558.14993 c -4.89921,-2.00521 -7.561056,-6.50891 -8.977454,-15.18943 l -1.396819,-8.56051 -14.652864,-0.67757 c -17.497364,-0.8091 -24.506058,-3.52681 -30.653739,-11.88636 -6.410499,-8.71693 -7.679125,-15.32626 -7.679125,-40.00699 0,-45.17689 7.374363,-63.63975 38.08,-95.33919 9.328,-9.62992 16.959999,-18.41914 16.959999,-19.53163 0,-1.11247 -2.736871,-5.65319 -6.081936,-10.09047 C 56.261023,308.8253 73.004023,237.03573 126.75367,209.903 c 17.4885,-8.82817 39.43079,-12.82744 56.31185,-10.26359 5.26596,0.79978 11.98135,1.78237 14.92308,2.18354 l 5.34863,0.72938 1.37434,-5.59617 c 6.89627,-28.08054 16.53648,-45.91877 34.55115,-63.93344 16.17559,-16.17559 35.55147,-27.38901 57.69728,-33.391175 9.16363,-2.483616 14.00984,-2.948802 30.71999,-2.948802 22.81504,0 33.91805,2.299036 51.99211,10.765717 37.23961,17.44466 60.16919,46.37097 70.95183,89.5077 l 1.39883,5.59617 5.34863,-0.72469 c 2.94173,-0.39857 9.3806,-1.37209 14.3086,-2.16339 28.76831,-4.61931 64.5161,8.68855 85.07966,31.67271 31.64345,35.36829 33.93799,90.50397 5.2755,126.76476 -2.87934,3.64263 -5.23516,7.5893 -5.23516,8.77036 0,1.18107 7.07496,9.40602 15.72214,18.27766 17.84112,18.30426 22.21522,24.16654 29.06103,38.94843 7.83858,16.92553 9.15411,23.93906 9.90295,52.79612 0.75127,28.95066 -0.29916,35.40419 -7.31346,44.93163 -6.16841,8.3785 -13.16078,11.08743 -30.70761,11.8965 l -14.69496,0.67757 -1.39953,8.55712 c -0.76974,4.70641 -2.17906,9.49639 -3.13181,10.64439 -5.00032,6.02503 5.43559,5.7638 -226.81518,5.67735 C 207.5326,559.23423 108.288,558.72621 106.88,558.14993 Z m 78.63055,-32.60216 c 1.21947,-1.46938 0.44911,-2.538 -4.072,-5.6486 -5.97645,-4.11191 -10.9841,-10.54358 -14.62134,-18.77918 -1.86553,-4.22402 -2.34401,-9.80816 -2.73418,-31.91012 -0.58194,-32.96398 0.66775,-45.07784 6.90502,-66.93361 1.00319,-3.51525 -1.40849,-4.6053 -14.69327,-6.64113 -5.20586,-0.79779 -13.73277,-2.92348 -18.94868,-4.72376 l -9.48349,-3.27327 -14.33131,13.83995 c -22.66342,21.88637 -27.604384,28.37386 -33.072539,43.42423 -2.323297,6.39456 -2.845591,11.21578 -3.345133,30.8784 l -0.591966,23.30068 3.019168,0.75079 c 1.660542,0.41294 9.643169,0.58362 17.739169,0.37931 L 112,499.83999 l 0.64,-18.75106 c 0.72229,-21.16222 1.90264,-24.12894 9.6,-24.12894 7.88582,0 8.14738,1.10533 8.57455,36.23678 0.32214,26.49319 0.7008,31.89891 2.30545,32.91192 1.056,0.66666 12.93747,1.22093 26.40327,1.23171 19.57211,0.0156 24.78496,-0.34393 25.98728,-1.79263 z m 199.59014,0.67013 c 1.3907,-0.88114 1.874,-9.94931 2.40371,-45.1004 0.43396,-28.79634 1.14391,-44.59977 2.05488,-45.74069 3.43649,-4.30397 12.24142,-3.7728 14.46473,0.87263 0.56609,1.1828 1.33227,13.95855 1.70263,28.39055 l 0.67335,26.24 24.15414,0.34882 c 17.65079,0.25489 24.66395,-0.0744 26.04767,-1.2227 2.81446,-2.33579 1.66409,-59.7669 -1.41827,-70.80612 -2.63804,-9.44789 -9.49693,-24.182 -15.04183,-32.3125 -5.80525,-8.51223 -50.992,-54.0875 -53.62643,-54.0875 -1.18975,0 -6.13041,1.62334 -10.97922,3.6074 -12.75615,5.21964 -22.59819,7.70404 -36.02115,9.09276 -19.94985,2.06399 -39.82386,-0.96343 -59.69096,-9.09276 -4.84881,-1.98406 -9.80691,-3.6074 -11.01798,-3.6074 -1.21106,0 -13.37184,11.38425 -27.02395,25.29833 -20.75452,21.15278 -25.82255,27.0782 -30.92784,36.16 -11.3034,20.10765 -13.71081,32.14514 -13.72451,68.62495 -0.008,20.34874 0.36146,26.07127 1.7562,27.2288 1.22327,1.01522 9.18781,1.35836 25.92,1.11674 l 24.15414,-0.34882 0.67335,-26.24 c 0.37036,-14.432 1.12204,-27.16998 1.67043,-28.30662 3.04503,-6.31155 13.72171,-5.17889 16.12336,1.71048 0.86909,2.49304 1.37286,19.32903 1.37286,45.88048 0,32.3562 0.36568,42.08988 1.6,42.58794 2.81377,1.13539 112.88999,0.85288 114.70069,-0.29437 z m 137.1393,-0.10921 c 1.60465,-1.01301 1.98331,-6.41873 2.30545,-32.91192 0.42717,-35.13145 0.68873,-36.23678 8.57455,-36.23678 7.69656,0 8.87767,2.9688 9.6,24.13036 l 0.64,18.74964 h 17.28 17.28 l 0.35331,-20.31887 c 0.63969,-36.78852 -5.22966,-49.14881 -37.82608,-79.65812 l -13.15276,-12.31062 -7.32724,2.69024 c -9.0481,3.32206 -22.65639,6.5132 -27.88258,6.53846 -2.15345,0.0102 -4.92265,0.75546 -6.15378,1.65569 -2.12394,1.55307 -2.10531,2.12589 0.36461,11.2 3.74562,13.76091 5.20484,29.39338 5.19402,55.64322 -0.0137,33.30829 -3.46605,44.43958 -16.74061,53.9764 -10.16966,7.30617 -8.07972,8.10735 21.08784,8.08401 13.4658,-0.0102 25.34727,-0.56505 26.40327,-1.23171 z M 186.24,362.70995 c 4.57499,-0.66261 7.67475,-3.27714 29.12,-24.5615 15.88146,-15.76232 24,-24.7242 24,-26.49311 0,-1.47023 -2.01362,-4.62484 -4.47473,-7.01022 -11.03295,-10.69356 -22.80872,-32.72201 -28.13843,-52.63743 -1.7393,-6.49923 -3.89687,-12.28908 -4.79461,-12.86634 -4.80149,-3.08749 -16.62041,-6.37722 -25.1876,-7.01082 -31.35247,-2.31873 -62.11248,20.27428 -69.14299,50.78506 -7.2088,31.28451 10.95517,65.7057 40.50743,76.76263 12.60355,4.71559 21.56331,5.42833 38.11093,3.03173 z m 316.95364,-1.82018 c 20.68416,-6.01074 38.28517,-24.45492 44.06697,-46.17799 2.39797,-9.00949 2.3514,-24.28494 -0.10278,-33.70704 -7.75696,-29.78094 -37.73955,-51.15379 -68.56251,-48.87421 -8.56719,0.6336 -20.38611,3.92333 -25.1876,7.01082 -0.89774,0.57726 -3.0553,6.36711 -4.79461,12.86634 -5.29661,19.79173 -15.32574,38.73614 -27.67886,52.28371 -2.71387,2.97627 -4.93429,6.45219 -4.93429,7.72425 0,1.30036 10.50636,12.75196 23.99999,26.15921 23.49845,23.34801 24.13375,23.86371 30.4,24.67709 3.52,0.45691 7.264,1.02664 8.32,1.26607 3.71053,0.84132 16.08771,-0.79132 24.47366,-3.22825 z M 350.07999,310.41262 c 17.68323,-4.50845 37.652,-17.22952 48.76104,-31.06311 6.79148,-8.45712 16.08257,-27.15544 18.59855,-37.42951 2.48125,-10.13228 2.18503,-33.32894 -0.55466,-43.43519 -8.30738,-30.64456 -30.798,-54.78324 -60.40493,-64.83128 -12.32501,-4.18288 -33.09885,-5.61255 -45.76889,-3.14985 -30.5808,5.94402 -58.13266,28.95694 -68.89608,57.54599 -13.15753,34.94812 -5.15613,71.90664 21.22324,98.03033 23.283,23.05733 56.08136,32.22616 87.04173,24.33262 z"
       id="path4969"
       inkscape:connector-curvature="0" />
  </g>
</svg>
